<?xml version="1.0" encoding="UTF-8"?>
<svg version="1.1" xmlns="http://www.w3.org/2000/svg" width="512" height="512">
<path d="M0 0 C11.5228569 9.38778723 20.05390829 22.33396331 27.0625 35.3125 C37.5118815 54.15600163 56.09360293 67.05861356 76.56420898 73.12841797 C92.379786 77.14047012 108.8533608 77.95914274 125.0625 79.125 C127.32882679 79.29489736 129.59510324 79.4654675 131.86132812 79.63671875 C137.25487837 80.04152283 142.64985308 80.42015442 148.04595947 80.78912354 C150.844352 80.98888895 153.63931046 81.21521884 156.43505859 81.44873047 C158.04911411 81.57051216 159.66320665 81.69180447 161.27734375 81.8125 C162.3465078 81.91257858 162.3465078 81.91257858 163.43727112 82.01467896 C170.44491222 82.49703537 173.95663669 79.35846212 179 75 C196.04358454 64.65894871 214.00777356 65.31276235 232.78613281 69.86254883 C235.52972931 70.55521272 238.26584085 71.27102296 241 72 C241.86254395 72.22945313 242.72508789 72.45890625 243.61376953 72.6953125 C245.28989621 73.14270815 246.96584525 73.59076992 248.64160156 74.03955078 C280.55091511 82.58002256 315.8606231 79.28988765 345.16455078 63.08398438 C350.12068944 60.15697511 354.61889806 56.73179666 359 53 C359.65097656 52.46117187 360.30195313 51.92234375 360.97265625 51.3671875 C366.92841987 45.96765693 370.8127165 38.77815416 375 32 C380.22014764 23.62338092 385.50618739 15.46983655 392 8 C392.61230469 7.28070313 393.22460938 6.56140625 393.85546875 5.8203125 C399.82877957 -0.70722304 407.03251268 -5.71013126 416.046875 -6.47265625 C426.24983282 -6.89193962 433.23144854 -5.51161459 441.1875 1 C447.38425866 6.84402009 451.4726892 14.38725691 452 23 C452.0928125 24.28970703 452.0928125 24.28970703 452.1875 25.60546875 C453.17349419 49.42339099 434.63175426 71.86180654 419.31103516 88.55273438 C414.20094894 93.964049 408.94729948 99.23470171 403.6875 104.5 C403.12192383 105.06666382 402.55634766 105.63332764 401.97363281 106.21716309 C395.82914614 112.360314 389.63433804 118.38151285 383 124 C381.91653885 124.94889062 380.83446221 125.89936489 379.75390625 126.8515625 C371.41330427 134.12385263 362.76020246 140.90799783 353.90600586 147.54296875 C353.27702393 148.02378906 352.64804199 148.50460937 352 149 C351.12287354 149.53077148 350.24574707 150.06154297 349.34204102 150.60839844 C345.89781749 154.12550609 346.0637808 157.30553023 345.8125 162.078125 C345.7104425 163.47491234 345.7104425 163.47491234 345.60632324 164.8999176 C345.46034357 166.93928733 345.32520325 168.97945452 345.19946289 171.02017212 C344.99755277 174.28962705 344.76713658 177.55597208 344.52929688 180.82299805 C344.18495855 185.59724899 343.85301836 190.3721237 343.53125 195.14794922 C342.71778078 207.21141483 341.87187443 219.27236695 340.97477722 231.329916 C340.65569426 235.6331194 340.35486496 239.93709827 340.06797028 244.24256229 C339.92863078 246.29302839 339.78102371 248.34270027 339.62976074 250.39231873 C339.44392232 252.91157739 339.27106512 255.43183932 339.11340332 257.95301819 C339.02635132 259.07429611 338.93929932 260.19557404 338.84960938 261.35083008 C338.78173218 262.3258699 338.71385498 263.30090973 338.6439209 264.30549622 C337.74652632 268.06066723 337.04538091 269.5339065 334 272 C329.99108263 272.75792297 326.02029958 272.67187644 321.95117188 272.63110352 C320.71830948 272.63825882 319.48544708 272.64541412 318.21522522 272.65278625 C314.83665054 272.66679974 311.45960582 272.65836377 308.08115578 272.63869596 C304.54493927 272.62230776 301.00877268 272.63112257 297.47253418 272.63621521 C291.53413285 272.64073602 285.59604652 272.6248675 279.65771484 272.59692383 C272.79337314 272.56487162 265.92959954 272.56488747 259.06521749 272.5821386 C252.46036249 272.59800569 245.85571566 272.59126907 239.25086975 272.57420158 C236.44070389 272.5673312 233.63070489 272.56836328 230.82054138 272.57574654 C226.89641686 272.58483423 222.97287554 272.56086955 219.04882812 272.53344727 C217.29851036 272.54323608 217.29851036 272.54323608 215.51283264 272.55322266 C213.91035927 272.53413597 213.91035927 272.53413597 212.2755127 272.5146637 C211.34785347 272.51185678 210.42019424 272.50904985 209.46442413 272.50615788 C206.24954094 271.84586632 205.06357798 270.49236719 203 268 C201.31189438 264.62378877 201.87939868 260.79796525 201.90625 257.0859375 C201.90983521 256.12916107 201.91342041 255.17238464 201.91711426 254.18661499 C201.99280433 239.77928988 202.23810738 225.37276681 202.46356201 210.96716309 C202.52511464 207.01067947 202.58472928 203.05416664 202.64453125 199.09765625 C202.76117756 191.3984085 202.87988866 183.69919456 203 176 C200.03 175.01 200.03 175.01 197 174 C197.01252808 174.84286057 197.02505615 175.68572113 197.03796387 176.55412292 C197.15723762 184.59729181 197.27499357 192.64048129 197.39115143 200.68369579 C197.45088319 204.81624243 197.51115024 208.94877964 197.57275391 213.08129883 C197.70034856 221.66378792 197.82001139 230.24625761 197.92019653 238.82911491 C197.97207097 243.15698648 198.04729933 247.48373919 198.13671875 251.81103516 C198.16465052 253.70344193 198.19205093 255.59585668 198.21875 257.48828125 C198.24199341 258.30668991 198.26523682 259.12509857 198.28918457 259.9683075 C198.33234505 264.5017923 197.84873111 267.41016717 195 271 C192.49234429 272.25382786 190.77230382 272.13707055 187.96499634 272.15390015 C186.89943008 272.16250061 185.83386383 272.17110107 184.73600769 272.17996216 C183.56193863 272.18422211 182.38786957 272.18848206 181.17822266 272.19287109 C179.94565231 272.20104858 178.71308197 272.20922607 177.44316101 272.21765137 C173.3501315 272.2425359 169.25713895 272.2591771 165.1640625 272.2734375 C163.75566984 272.27879693 162.34727725 272.28417444 160.93888474 272.28956985 C155.08151702 272.31119684 149.22415207 272.32993462 143.36675453 272.34119225 C134.9682625 272.3574394 126.57023252 272.39063702 118.1719147 272.44759309 C112.26867588 272.48626551 106.3655608 272.50582158 100.46219862 272.51111281 C96.93514646 272.5147696 93.40858712 272.52682434 89.88167191 272.55921555 C85.94783129 272.59482663 82.01457298 272.59093214 78.08056641 272.58349609 C76.91054581 272.59990143 75.74052521 272.61630676 74.53504944 272.63320923 C66.80584222 272.57318784 66.80584222 272.57318784 63.31825256 270.09249878 C61.45428306 265.71979846 61.11964872 261.65260444 60.82739258 256.93652344 C60.7503862 255.92612503 60.67337982 254.91572662 60.59403992 253.87471008 C60.3438786 250.53726957 60.11919854 247.19862043 59.89453125 243.859375 C59.72490084 241.53383723 59.55362753 239.20841877 59.38078308 236.88311768 C58.92977063 230.75888923 58.50009552 224.63334731 58.07513428 218.50726318 C57.64084827 212.29433909 57.18831272 206.08275134 56.73632812 199.87109375 C56.22785458 192.88128386 55.72091698 185.89142736 55.23042297 178.90032959 C55.15499268 177.83237656 55.07956238 176.76442352 55.00184631 175.66410828 C54.86230438 173.68540185 54.72412811 171.70659837 54.587677 169.72767639 C54.40523898 167.15054399 54.20525611 164.57540289 54 162 C53.94269903 161.15815407 53.88539806 160.31630814 53.8263607 159.44895172 C53.75968508 158.64879387 53.69300945 157.84863602 53.62431335 157.02423096 C53.57075526 156.31883808 53.51719717 155.61344521 53.46201611 154.88667679 C52.56447494 151.22150137 49.61660916 149.510427 46.625 147.5 C45.33516922 146.56225374 44.0461145 145.62343919 42.7578125 144.68359375 C42.1174707 144.22968262 41.47712891 143.77577148 40.81738281 143.30810547 C38.29423782 141.49201051 35.8970976 139.54099996 33.5 137.5625 C32.62085937 136.83804688 31.74171875 136.11359375 30.8359375 135.3671875 C17.09226892 123.89519968 3.92231102 111.99718448 -8.7890625 99.38616943 C-10.20565861 97.98146903 -11.62620508 96.58075592 -13.046875 95.18017578 C-19.13290716 89.10179488 -24.69794136 82.77181066 -30 76 C-30.73911621 75.0577356 -30.73911621 75.0577356 -31.49316406 74.09643555 C-43.65780485 58.26680683 -54.08432833 41.12207686 -51.71875 20.5546875 C-49.86226812 10.30833558 -44.34127778 3.04317064 -36 -3 C-25.31226821 -9.92379146 -9.68957994 -6.93855235 0 0 Z " fill="#010101" transform="translate(56,233)"/>
<path d="M0 0 C1.10199234 0.48442062 2.20398468 0.96884125 3.33937073 1.46794128 C6.85961026 3.0192041 10.36932711 4.5927576 13.87890625 6.16796875 C17.31500393 7.69217958 20.75314994 9.21169367 24.19155884 10.73068237 C26.47892226 11.74285395 28.76471695 12.75857818 31.04891968 13.77786255 C36.95439768 16.40701408 42.87782919 18.97278801 48.85595703 21.43115234 C50.0506813 21.92499924 51.24540558 22.41884613 52.47633362 22.92765808 C54.75839991 23.86619715 57.0445011 24.79500243 59.33506775 25.71260071 C60.35637283 26.13317245 61.37767792 26.5537442 62.42993164 26.98706055 C63.32805069 27.34938278 64.22616974 27.71170502 65.15150452 28.08500671 C67.8665817 29.59136065 68.99711645 30.59818491 70.44140625 33.35546875 C70.73121199 35.89219181 70.85190153 38.18127967 70.82958984 40.71582031 C70.83747528 41.8193132 70.83747528 41.8193132 70.84552002 42.94509888 C70.85872543 45.37897989 70.84996945 47.81220592 70.83984375 50.24609375 C70.84186692 51.95082727 70.84478039 53.65555995 70.84854126 55.36029053 C70.85296749 58.941449 70.8465336 62.52238323 70.83251953 66.10351562 C70.81558285 70.64879775 70.82516707 75.19354228 70.84323692 79.73880386 C70.85420059 83.26690541 70.85056895 86.7948847 70.84285355 90.32299042 C70.84087789 91.99558325 70.84321602 93.66818787 70.85029221 95.34076691 C70.95053294 125.74231405 61.25049157 151.06332506 40.0078125 172.8515625 C25.62322974 186.48030511 2.80564645 199.82827785 -17.70166016 199.30029297 C-41.82318078 197.01237433 -65.59996764 182.17218778 -80.83203125 163.82128906 C-91.38553116 150.60542895 -97.96825079 135.82642065 -101.55859375 119.35546875 C-101.73387604 118.63069839 -101.90915833 117.90592804 -102.0897522 117.15919495 C-102.69423321 113.54432923 -102.73049945 109.9781987 -102.75146484 106.32397461 C-102.75964233 105.52987686 -102.76781982 104.73577911 -102.77624512 103.9176178 C-102.80096768 101.30185688 -102.8175749 98.68614945 -102.83203125 96.0703125 C-102.83735493 95.17522036 -102.8426786 94.28012821 -102.8481636 93.35791206 C-102.87482888 88.62655623 -102.89423099 83.89522626 -102.90869141 79.16381836 C-102.92206664 75.24789255 -102.94999399 71.33248339 -102.99072266 67.41674805 C-103.03994037 62.68415998 -103.06479756 57.95204275 -103.07191849 53.21920967 C-103.07864161 51.41663019 -103.09389122 49.61406167 -103.1178093 47.81162834 C-103.14934349 45.29304593 -103.14951693 42.7762954 -103.14208984 40.25756836 C-103.15849518 39.51304413 -103.17490051 38.7685199 -103.19180298 38.00143433 C-103.14779785 34.36064954 -102.89066192 32.70809 -100.35806274 30.01873779 C-97.67040812 28.42190184 -95.06105657 27.06136976 -92.18359375 25.84106445 C-91.13059082 25.38991776 -90.07758789 24.93877106 -88.99267578 24.47395325 C-87.29280518 23.75981514 -87.29280518 23.75981514 -85.55859375 23.03125 C-84.37249512 22.52554977 -83.18639648 22.01984955 -81.96435547 21.49882507 C-78.80577946 20.15222273 -75.64329783 18.815049 -72.4798584 17.47991943 C-68.72031554 15.89108918 -64.96561349 14.29086087 -61.21020508 12.69228935 C-58.14966601 11.39013957 -55.0873576 10.09243404 -52.02246094 8.80056763 C-46.44777929 6.44948197 -40.89166203 4.0728325 -35.37890625 1.57958984 C-34.43128418 1.15614792 -33.48366211 0.73270599 -32.50732422 0.2964325 C-30.77871038 -0.47892407 -29.05571987 -1.26701867 -27.34033203 -2.07121277 C-17.01578102 -6.67094475 -10.01398253 -4.55005005 0 0 Z " fill="#000100" transform="translate(269.55859375,11.64453125)"/>
<path d="M0 0 C4.63205941 2.82515693 6.67841017 6.56904924 8.40234375 11.62890625 C10.71440048 21.69315318 5.19072007 31.63108362 0.3125 40.16796875 C-5.71725634 49.7909047 -12.9813274 58.4394403 -20.6953125 66.7421875 C-22.70226197 68.9090126 -24.64223282 71.11220732 -26.5625 73.35546875 C-32.18288957 79.80704269 -38.28839201 85.7276619 -44.78125 91.29296875 C-46.98365461 93.21619531 -49.13253658 95.19078886 -51.27539062 97.17993164 C-57.32202161 102.78766327 -63.55412755 108.08219677 -70 113.23046875 C-71.23589429 114.22368812 -72.47155815 115.21719426 -73.70703125 116.2109375 C-79.88329481 121.17157761 -86.07329954 126.1094524 -92.36328125 130.92578125 C-95.66734885 133.5595726 -96.38376821 135.09164277 -97 139.23046875 C-97.19518049 141.11314726 -97.35971661 142.99915568 -97.5 144.88671875 C-97.6227832 146.52833984 -97.6227832 146.52833984 -97.74804688 148.203125 C-97.83119141 149.36714844 -97.91433594 150.53117188 -98 151.73046875 C-98.08830078 152.93574219 -98.17660156 154.14101563 -98.26757812 155.3828125 C-98.84054192 163.4043056 -99.31713377 171.42446608 -99.5703125 179.46289062 C-99.91166609 188.46997056 -101.04842012 197.19045987 -102 206.23046875 C-102.99 219.10046875 -103.98 231.97046875 -105 245.23046875 C-138.99 245.23046875 -172.98 245.23046875 -208 245.23046875 C-208.04898437 237.38007813 -208.09796875 229.5296875 -208.1484375 221.44140625 C-208.18385298 216.44660226 -208.21982969 211.45181477 -208.2578125 206.45703125 C-208.31795168 198.54169454 -208.37609407 190.62637352 -208.421875 182.7109375 C-208.45894493 176.32419642 -208.505362 169.93758345 -208.55806351 163.55095291 C-208.57649272 161.1231373 -208.59164224 158.69529434 -208.60334396 156.26743698 C-208.72015786 132.85373383 -209.10041354 109.3535981 -226.375 91.35546875 C-230.55662878 87.40415343 -235.08002603 84.19641051 -240 81.23046875 C-239 78.23046875 -239 78.23046875 -236.9453125 76.84375 C-217.81353878 68.01981558 -197.11440547 75.18431278 -177.9375 80.41796875 C-157.84931885 85.79950969 -137.23982823 85.83243891 -117 81.23046875 C-115.59272904 80.93615258 -114.18517129 80.64320468 -112.77734375 80.3515625 C-93.22561889 76.17099951 -74.36042304 69.39654564 -59 56.23046875 C-58.3503125 55.73546875 -57.700625 55.24046875 -57.03125 54.73046875 C-48.04175991 47.5959528 -42.10802391 37.26201376 -36.375 27.48046875 C-16.5242216 -6.35795245 -16.5242216 -6.35795245 0 0 Z " fill="#FDDF76" transform="translate(483,243.76953125)"/>
<path d="M0 0 C13.69357857 5.70717722 22.16422871 20.47047965 29.203125 32.8359375 C41.77195505 54.86180083 61.56175952 70.91711331 86.125 77.9375 C88.74390819 78.65227893 91.36957384 79.32753992 94 80 C95.04768555 80.33016113 96.09537109 80.66032227 97.17480469 81.00048828 C101.47685811 82.12460155 105.58923056 82.59534733 110.0078125 82.96484375 C110.87495377 83.04264069 111.74209503 83.12043762 112.63551331 83.20059204 C115.464818 83.45262235 118.29486984 83.69493272 121.125 83.9375 C123.09095339 84.11196724 125.05685467 84.28702261 127.02270508 84.46264648 C136.61600844 85.3127529 146.21206075 86.10576834 155.81640625 86.8203125 C157.50179214 86.94797466 159.18717629 87.07565966 160.87255859 87.20336914 C164.00880842 87.44038524 167.14562344 87.66138582 170.28369141 87.87280273 C180.22629113 88.58392043 188.34430836 89.85442967 196.75 95.4375 C197.63171875 96.01371094 198.5134375 96.58992188 199.421875 97.18359375 C203.94228612 100.36842885 207.49076911 103.28099034 210.625 107.875 C211.19476563 108.69742188 211.76453125 109.51984375 212.3515625 110.3671875 C219.68162041 122.0744364 220.50831794 134.55781439 220 148 C218.948125 147.54625 217.89625 147.0925 216.8125 146.625 C216.17054688 146.35300781 215.52859375 146.08101562 214.8671875 145.80078125 C213.37972763 145.1628539 211.90596706 144.49300913 210.4375 143.8125 C206.37210438 142.45736813 203.03141334 142.65619555 199 144 C198.67 177.66 198.34 211.32 198 246 C164.01 246 130.02 246 95 246 C90.09267164 184.85734125 90.09267164 184.85734125 89.0703125 169.453125 C89.00332657 168.44973587 88.93634064 167.44634674 88.86732483 166.41255188 C88.56257006 161.81695346 88.26835653 157.22099065 87.98901367 152.6237793 C87.88478404 151.00828908 87.78038445 149.39280982 87.67578125 147.77734375 C87.63635406 147.0676947 87.59692688 146.35804565 87.55630493 145.62689209 C87.23415442 140.79441305 86.71760889 136.03768824 83.51171875 132.234375 C82.60873047 131.49960937 82.60873047 131.49960937 81.6875 130.75 C80.97335938 130.1621875 80.25921875 129.574375 79.5234375 128.96875 C76.07622934 126.27928729 72.60877401 123.61687749 69.12939453 120.96923828 C63.47236445 116.64517725 58.0566376 112.06239192 52.65917969 107.42089844 C50.99139209 105.9926283 49.31351897 104.57709731 47.6328125 103.1640625 C33.30478111 91.07376608 19.06033854 78.3953289 7 64 C6.55462891 63.46842285 6.10925781 62.9368457 5.65039062 62.38916016 C-20.04804858 31.52217754 -20.04804858 31.52217754 -19 15 C-17.04120486 5.51530776 -10.14245878 -1.65192411 0 0 Z " fill="#89C8FC" transform="translate(39,243)"/>
<path d="M0 0 C0.7432402 0.32203903 1.48648041 0.64407806 2.25224304 0.97587585 C4.6131391 2.00067903 6.96876073 3.03698608 9.32421875 4.07421875 C11.66998901 5.09823722 14.01680212 6.11982185 16.36405945 7.14042664 C17.81780832 7.77349167 19.27054439 8.40889035 20.72200012 9.04719543 C26.10505138 11.40568921 31.54540019 13.60382805 37.01171875 15.76171875 C37.14002102 22.99825789 37.22668979 30.2344968 37.28637695 37.47192383 C37.31129694 39.92646239 37.34524561 42.38092851 37.38891602 44.83520508 C37.79778247 68.42920465 35.32436028 87.65986216 18.3828125 105.515625 C9.79192551 113.65361514 -1.95952269 121.01409336 -13.98828125 121.76171875 C-29.28833673 118.59994957 -43.0204368 108.40840308 -51.61328125 95.57421875 C-59.63942825 82.38969412 -62.33274145 69.8293661 -62.18359375 54.53125 C-62.18076385 53.41481613 -62.17793396 52.29838226 -62.17501831 51.14811707 C-62.16392832 47.62336978 -62.13884505 44.09888771 -62.11328125 40.57421875 C-62.10323699 38.16732141 -62.09411368 35.76042004 -62.0859375 33.35351562 C-62.06402576 27.48949464 -62.03066156 21.62562565 -61.98828125 15.76171875 C-57.22381691 13.71623184 -52.45898984 11.67159288 -47.69384766 9.62768555 C-46.07819165 8.93455016 -44.46262914 8.24119679 -42.84716797 7.54760742 C-41.67758545 7.04547729 -41.67758545 7.04547729 -40.484375 6.53320312 C-39.71065552 6.20093719 -38.93693604 5.86867126 -38.13977051 5.52633667 C-36.59350095 4.86407624 -35.04621886 4.20417482 -33.4979248 3.54666138 C-30.11653224 2.11053974 -26.75550042 0.65490557 -23.41601562 -0.87744141 C-22.38283203 -1.34327637 -21.34964844 -1.80911133 -20.28515625 -2.2890625 C-19.41729492 -2.69423096 -18.54943359 -3.09939941 -17.65527344 -3.5168457 C-11.34463277 -5.22390751 -5.68937689 -2.52973823 0 0 Z " fill="#EAEDEF" transform="translate(265.98828125,51.23828125)"/>
<path d="M0 0 C1.03878296 0.44103561 2.07756592 0.88207123 3.14782715 1.33647156 C4.2624231 1.81558487 5.37701904 2.29469818 6.52539062 2.78833008 C7.68607056 3.28319412 8.84675049 3.77805817 10.04260254 4.28791809 C12.50139833 5.33733545 14.95934913 6.38850129 17.41601562 7.44287109 C20.5256867 8.77742987 23.63776326 10.10625458 26.75081635 11.43290234 C29.75999241 12.71574252 32.76768039 14.00205769 35.77539062 15.28833008 C36.87379272 15.75732224 37.97219482 16.22631439 39.10388184 16.70951843 C46.69268485 19.96754215 54.19904291 23.3756129 61.68164062 26.87036133 C61.75165671 35.23387049 61.80471042 43.59725385 61.83707714 51.96098518 C61.85262436 55.8460856 61.8736579 59.73098311 61.90795898 63.6159668 C61.94094891 67.37668682 61.95857551 71.13721373 61.96627235 74.89806747 C61.97174578 76.32114572 61.98242996 77.74421537 61.9988308 79.16720963 C62.27613484 104.26279452 53.59986851 126.27530936 36.36914062 144.49536133 C24.65383567 155.73572149 7.79784581 165.99695157 -8.72070312 167.09692383 C-12.67565684 166.84786051 -16.19681236 166.02053635 -19.94335938 164.80786133 C-20.63631104 164.58598145 -21.3292627 164.36410156 -22.04321289 164.13549805 C-42.64436135 157.22831798 -60.43025845 142.22626358 -70.31835938 122.87036133 C-77.14525509 108.48964974 -79.78812063 94.61372558 -79.61132812 78.72583008 C-79.6057161 77.21983773 -79.60145363 75.71383981 -79.59846497 74.20783997 C-79.58714228 70.29023469 -79.55778763 66.37297598 -79.52435303 62.45550537 C-79.49337685 58.43954147 -79.47990146 54.42352025 -79.46484375 50.4074707 C-79.43290239 42.56161149 -79.38186359 34.71603541 -79.31835938 26.87036133 C-71.91741994 23.04197662 -64.37767371 19.66556652 -56.70507812 16.42114258 C-55.53249954 15.92245163 -54.35992096 15.42376068 -53.15180969 14.90995789 C-50.06577024 13.59824363 -46.97858191 12.28931069 -43.89080811 10.98168945 C-41.37075415 9.91370816 -38.85188666 8.8429456 -36.33307171 7.77204609 C-31.1180575 5.55492252 -25.90213084 3.33994305 -20.68432617 1.12939453 C-19.76628708 0.74032425 -18.84824799 0.35125397 -17.90238953 -0.04960632 C-17.04965958 -0.406017 -16.19692963 -0.76242767 -15.31835938 -1.12963867 C-14.06953728 -1.72546501 -14.06953728 -1.72546501 -12.79548645 -2.33332825 C-8.13869802 -3.83032419 -4.32162086 -1.84597753 0 0 Z M-16.20043945 21.70629883 C-17.14103714 22.10671387 -18.08163483 22.50712891 -19.05073547 22.91967773 C-20.05299667 23.35715332 -21.05525787 23.79462891 -22.08789062 24.24536133 C-23.12403 24.68928223 -24.16016937 25.13320313 -25.22770691 25.59057617 C-28.53245416 27.00875014 -31.8316466 28.4393659 -35.13085938 29.87036133 C-37.37204102 30.83472799 -39.61357358 31.79827957 -41.85546875 32.76098633 C-47.34720414 35.12133922 -52.83443277 37.49192666 -58.31835938 39.87036133 C-58.36939677 46.93209723 -58.40423367 53.99378491 -58.42822266 61.05566406 C-58.43823169 63.45411964 -58.45184301 65.85256318 -58.46923828 68.25097656 C-58.4937118 71.71397897 -58.5048938 75.17681895 -58.51367188 78.63989258 C-58.52399445 79.69868118 -58.53431702 80.75746979 -58.54495239 81.8483429 C-58.54758129 99.60314567 -52.94776568 115.94878885 -40.63085938 129.05786133 C-31.91418804 137.22242104 -20.28531165 145.28407002 -7.99414062 146.00708008 C-5.53242135 145.61789398 -3.60638118 144.87666721 -1.31835938 143.87036133 C-0.73828125 143.62592285 -0.15820312 143.38148438 0.43945312 143.12963867 C16.99312552 136.02755263 29.45523449 124.91166453 36.31445312 108.03833008 C38.84053721 101.14572922 40.81276299 94.81063157 40.79516602 87.4375 C40.79509048 86.3767778 40.79501495 85.3160556 40.79493713 84.22319031 C40.78977585 83.08968643 40.78461456 81.95618256 40.77929688 80.78833008 C40.77788193 79.61901443 40.77646698 78.44969879 40.77500916 77.24494934 C40.76941855 73.51589381 40.75686771 69.78689866 40.74414062 66.05786133 C40.73912441 63.52726324 40.73456172 60.99666421 40.73046875 58.46606445 C40.71945219 52.2674762 40.70272336 46.06892308 40.68164062 39.87036133 C39.82634766 39.51321045 38.97105469 39.15605957 38.08984375 38.78808594 C34.84077307 37.43058851 31.59218671 36.07194472 28.34393311 34.7124939 C26.90631497 34.11104141 25.46853094 33.50998532 24.03057861 32.90933228 C14.81475655 29.05899373 5.64126036 25.14937588 -3.41992188 20.94458008 C-8.2234997 19.16427832 -11.56427813 19.70687616 -16.20043945 21.70629883 Z " fill="#020302" transform="translate(262.318359375,27.129638671875)"/>
<path d="M0 0 C12.60527032 8.48474259 20.66709835 21.28688468 23.81030273 36.07861328 C26.49818788 51.83671789 23.85183259 68.18468847 15.25 81.71484375 C6.89755965 93.17329756 -3.7201416 100.56133831 -17.83984375 103.05859375 C-30.77239279 104.34462377 -41.7658861 101.32033597 -52.28125 93.67578125 C-64.51005395 83.45407372 -71.10395407 69.24009806 -72.77734375 53.49609375 C-74.02704479 36.58524558 -68.63671388 21.08498235 -57.81640625 8.15234375 C-42.67542255 -8.24583354 -19.05668434 -11.32645965 0 0 Z " fill="#010101" transform="translate(205.77734375,201.50390625)"/>
<path d="M0 0 C1.44353707 1.06879801 2.86032018 2.17455516 4.25 3.3125 C5.37341797 4.21548828 5.37341797 4.21548828 6.51953125 5.13671875 C17.90763615 15.32199145 23.32052501 30.63180553 24.4140625 45.55078125 C25.02558583 62.5344519 18.75258267 77.97844134 7.375 90.3515625 C-1.9692251 99.18964208 -13.0368823 102.86475946 -25.75 103.3125 C-37.61359384 102.97184749 -48.62012156 97.69835662 -57.1875 89.625 C-69.52433666 76.1739991 -73.71609647 60.62124225 -73.0625 42.76171875 C-72.15641089 27.41968856 -65.18519243 13.60976953 -53.75 3.3125 C-37.57313211 -8.38042748 -17.50905837 -10.89385087 0 0 Z " fill="#010101" transform="translate(354.75,201.6875)"/>
<path d="M0 0 C8.7127476 6.32674782 14.74196833 14.68527675 16.921875 25.37109375 C18.54480358 37.91589301 16.46550732 50.25953275 8.9609375 60.66796875 C3.66620916 66.79505613 -3.60148042 71.95957059 -11.76953125 72.9765625 C-21.94571924 73.18727528 -28.59983056 70.81788264 -36.1015625 63.91796875 C-45.17219466 54.18765425 -47.460575 42.471932 -47.1015625 29.58203125 C-46.2709394 19.01235226 -41.17384906 9.3687437 -33.3515625 2.23046875 C-23.75264882 -5.23304944 -10.65909558 -6.32109156 0 0 Z " fill="#F4DACB" transform="translate(196.7890625,215.39453125)"/>
<path d="M0 0 C7.04077417 4.58869192 11.11179496 9.7299233 14.91796875 17.25 C15.26085937 17.92546875 15.60375 18.6009375 15.95703125 19.296875 C19.64925394 28.19961756 19.33654389 40.25942734 16.23046875 49.3125 C15.50545478 50.97902517 14.73719696 52.62771256 13.91796875 54.25 C13.39203125 55.32121094 13.39203125 55.32121094 12.85546875 56.4140625 C8.86547534 63.59050897 2.14897343 70.44293226 -5.8671875 72.83984375 C-15.93091463 74.70349692 -23.59400208 73.02333388 -32.08203125 67.25 C-37.16623634 62.79788527 -40.5889048 57.49435837 -43.08203125 51.25 C-43.38109375 50.50105469 -43.68015625 49.75210938 -43.98828125 48.98046875 C-47.9210919 37.71005304 -46.80553559 26.68430149 -42.05078125 15.9140625 C-38.27855862 8.44608122 -32.33830261 1.32589878 -24.54296875 -2.125 C-16.50508082 -4.16636836 -7.37663632 -3.98587479 0 0 Z " fill="#F4DACB" transform="translate(344.08203125,214.75)"/>
<path d="M0 0 C1.03878296 0.44103561 2.07756592 0.88207123 3.14782715 1.33647156 C4.2624231 1.81558487 5.37701904 2.29469818 6.52539062 2.78833008 C7.68607056 3.28319412 8.84675049 3.77805817 10.04260254 4.28791809 C12.50139833 5.33733545 14.95934913 6.38850129 17.41601562 7.44287109 C20.5256867 8.77742987 23.63776326 10.10625458 26.75081635 11.43290234 C29.75999241 12.71574252 32.76768039 14.00205769 35.77539062 15.28833008 C36.87379272 15.75732224 37.97219482 16.22631439 39.10388184 16.70951843 C46.69268485 19.96754215 54.19904291 23.3756129 61.68164062 26.87036133 C61.75165671 35.23387049 61.80471042 43.59725385 61.83707714 51.96098518 C61.85262436 55.8460856 61.8736579 59.73098311 61.90795898 63.6159668 C61.94094891 67.37668682 61.95857551 71.13721373 61.96627235 74.89806747 C61.97174578 76.32114572 61.98242996 77.74421537 61.9988308 79.16720963 C62.27613484 104.26279452 53.59986851 126.27530936 36.36914062 144.49536133 C24.65383567 155.73572149 7.79784581 165.99695157 -8.72070312 167.09692383 C-12.67565684 166.84786051 -16.19681236 166.02053635 -19.94335938 164.80786133 C-20.63631104 164.58598145 -21.3292627 164.36410156 -22.04321289 164.13549805 C-42.64436135 157.22831798 -60.43025845 142.22626358 -70.31835938 122.87036133 C-77.14525509 108.48964974 -79.78812063 94.61372558 -79.61132812 78.72583008 C-79.6057161 77.21983773 -79.60145363 75.71383981 -79.59846497 74.20783997 C-79.58714228 70.29023469 -79.55778763 66.37297598 -79.52435303 62.45550537 C-79.49337685 58.43954147 -79.47990146 54.42352025 -79.46484375 50.4074707 C-79.43290239 42.56161149 -79.38186359 34.71603541 -79.31835938 26.87036133 C-71.91741994 23.04197662 -64.37767371 19.66556652 -56.70507812 16.42114258 C-55.53249954 15.92245163 -54.35992096 15.42376068 -53.15180969 14.90995789 C-50.06577024 13.59824363 -46.97858191 12.28931069 -43.89080811 10.98168945 C-41.37075415 9.91370816 -38.85188666 8.8429456 -36.33307171 7.77204609 C-31.1180575 5.55492252 -25.90213084 3.33994305 -20.68432617 1.12939453 C-19.76628708 0.74032425 -18.84824799 0.35125397 -17.90238953 -0.04960632 C-17.04965958 -0.406017 -16.19692963 -0.76242767 -15.31835938 -1.12963867 C-14.06953728 -1.72546501 -14.06953728 -1.72546501 -12.79548645 -2.33332825 C-8.13869802 -3.83032419 -4.32162086 -1.84597753 0 0 Z M-24.56835938 7.76098633 C-25.74043945 8.26200867 -26.91251953 8.76303101 -28.12011719 9.27923584 C-30.59389957 10.33944594 -33.06511344 11.40405463 -35.53320312 12.47729492 C-38.6785558 13.84490581 -41.82995029 15.19781599 -44.98394775 16.54535294 C-48.01439993 17.84102441 -51.04139773 19.14468523 -54.06835938 20.44848633 C-55.19145508 20.93093811 -56.31455078 21.41338989 -57.47167969 21.91046143 C-67.1427245 25.37014717 -67.1427245 25.37014717 -74.31835938 31.87036133 C-74.43526594 33.80670314 -74.48809445 35.74703783 -74.51123047 37.68676758 C-74.5272934 38.90984619 -74.54335632 40.1329248 -74.55990601 41.39306641 C-74.57140966 42.73965754 -74.58201543 44.08625659 -74.59179688 45.43286133 C-74.59712055 46.11464447 -74.60244423 46.79642761 -74.60792923 47.49887085 C-74.63470628 51.12464268 -74.6540454 54.75037996 -74.66845703 58.3762207 C-74.68165857 61.34399192 -74.70924076 64.31105281 -74.75048828 67.27856445 C-75.13014401 95.23032387 -72.0227385 119.43650067 -51.82324219 140.39331055 C-40.57762976 151.43094118 -25.10617188 161.10569928 -9.06445312 161.99536133 C7.2250052 161.03539325 22.49987706 151.05212489 33.68164062 139.87036133 C34.46539062 139.08661133 35.24914062 138.30286133 36.05664062 137.49536133 C51.18368743 121.55063632 56.94872521 101.93123312 57.08789062 80.38598633 C57.09354538 79.70542931 57.09920013 79.02487228 57.10502625 78.32369232 C57.13479245 74.73229983 57.15339596 71.14106392 57.16210938 67.54956055 C57.17313895 63.85148722 57.22137532 60.15486447 57.27805328 56.45724869 C57.31532733 53.5987117 57.32571747 50.74052674 57.32878113 47.88176727 C57.33481604 46.51818534 57.35081282 45.15460828 57.37715149 43.7912674 C57.74380702 36.63297856 57.74380702 36.63297856 55.56532288 30.01947021 C52.11024732 26.9212343 47.44685173 25.16685138 43.17773438 23.41723633 C42.46551224 23.11529861 41.7532901 22.8133609 41.01948547 22.50227356 C38.72347153 21.53153369 36.42166718 20.5755382 34.11914062 19.62036133 C32.53511254 18.95579477 30.951455 18.29034432 29.36816406 17.62402344 C27.00635258 16.63038386 24.64419947 15.63765749 22.28018188 14.64927673 C17.81359602 12.77992344 13.37181945 10.86627074 8.95117188 8.88989258 C7.99863525 8.46675781 7.04609863 8.04362305 6.06469727 7.60766602 C4.36826539 6.85076011 2.67568481 6.08513223 0.98803711 5.30883789 C0.24239502 4.97980469 -0.50324707 4.65077148 -1.27148438 4.31176758 C-1.8918457 4.03018799 -2.51220703 3.7486084 -3.15136719 3.45849609 C-11.16218866 1.28431077 -17.26651505 4.57166749 -24.56835938 7.76098633 Z " fill="#65E7B7" transform="translate(262.318359375,27.129638671875)"/>
<path d="M0 0 C3.6875 0.75 3.6875 0.75 6.1875 2.375 C8.24434151 5.63166572 8.49218484 6.94603531 7.6875 10.75 C3.31620736 16.74044173 -2.33520587 21.78761004 -7.75 26.8125 C-8.46220703 27.48087891 -9.17441406 28.14925781 -9.90820312 28.83789062 C-14.03214083 32.69214303 -18.22004534 36.45996827 -22.48413086 40.15844727 C-24.08932411 41.55573059 -25.67341816 42.97717587 -27.25390625 44.40234375 C-28.11886719 45.15644531 -28.98382813 45.91054687 -29.875 46.6875 C-30.74253906 47.45964844 -31.61007813 48.23179687 -32.50390625 49.02734375 C-36.33605065 51.37779671 -37.87361829 51.71397638 -42.3125 50.75 C-45.98106714 48.08836947 -49.0481631 44.94444203 -52.1875 41.6875 C-53.486875 40.41616211 -53.486875 40.41616211 -54.8125 39.11914062 C-61.73641953 32.09212197 -61.73641953 32.09212197 -62.47265625 27.8125 C-62.3125 24.75 -62.3125 24.75 -60.875 21.8125 C-58.10738072 19.58490399 -56.19996638 18.79239826 -52.61328125 18.98828125 C-47.57700675 20.65563868 -43.76514808 24.85315158 -40.3125 28.75 C-39.9825 29.74 -39.6525 30.73 -39.3125 31.75 C-33.6111643 27.2033652 -28.05476884 22.66882291 -22.98046875 17.42578125 C-20.57513377 15.00918007 -18.01176261 12.80029063 -15.4140625 10.59375 C-13.92666793 9.28882391 -12.48753235 7.92792697 -11.0859375 6.53125 C-4.63142521 0.23200089 -4.63142521 0.23200089 0 0 Z " fill="#030303" transform="translate(284.3125,80.25)"/>
<path d="M0 0 C1.65 0.66 3.3 1.32 5 2 C5.07001609 10.36350916 5.12306979 18.72689253 5.15543652 27.09062386 C5.17098374 30.97572427 5.19201728 34.86062178 5.22631836 38.74560547 C5.25930829 42.5063255 5.27693489 46.2668524 5.28463173 50.02770615 C5.29010516 51.45078439 5.30078934 52.87385404 5.31719017 54.2968483 C5.56995909 77.17204305 -1.48804264 98.88760259 -17 116 C-18.93475342 117.81997992 -20.87169768 119.40377326 -23 121 C-21.36862283 117.38334902 -19.14878862 114.38431489 -16.8125 111.1875 C-0.63784544 88.14997907 -0.36555723 63.42128983 -0.26177979 36.24603271 C-0.24194726 32.14892108 -0.20001071 28.05203524 -0.16015625 23.95507812 C-0.08562618 15.97011245 -0.03487319 7.98523711 0 0 Z " fill="#01D58F" transform="translate(319,52)"/>
<path d="M0 0 C0.88945312 -0.00257813 1.77890625 -0.00515625 2.6953125 -0.0078125 C7.56078542 0.0648065 11.09192795 0.28529557 15 3.5 C16.44430855 6.38861709 16.37688506 8.29647701 16 11.5 C13.91652078 14.52970753 12.27928296 16.25329596 8.59082031 16.96459961 C5.69058771 17.13782081 2.84185329 17.13250721 -0.0625 17.0625 C-1.05572266 17.07345703 -2.04894531 17.08441406 -3.07226562 17.09570312 C-10.23860918 17.02331582 -10.23860918 17.02331582 -13.6484375 14.6796875 C-15.68097886 11.40177397 -15.59605514 9.27501589 -15 5.5 C-10.80904714 -0.40504401 -6.67683358 -0.21288455 0 0 Z " fill="#020405" transform="translate(156,388.5)"/>
<path d="M0 0 C7.56232176 5.5961181 12.93780728 13.41672622 14.74609375 22.80078125 C16.228665 35.64212916 14.25972456 47.90062454 6.3125 58.375 C4.56139599 60.44836927 3.4229479 61.78852605 1 63 C1.9032809 58.66628152 3.84747065 54.92215843 5.74609375 50.94921875 C10.79355044 39.07747483 10.92985132 24.55684225 6.22265625 12.52734375 C4.68939217 9.35794484 2.97272747 6.40684584 0.953125 3.5234375 C0 2 0 2 0 0 Z " fill="#E4C0B2" transform="translate(199,218)"/>
<path d="M0 0 C7.73142867 7.06873478 12.47128432 15.45553151 13.3203125 25.96484375 C13.7826458 37.93443788 11.5684869 48.36944032 4 58 C1.1875 60.5 1.1875 60.5 -1 62 C0.35051954 58.51741026 1.8719432 55.17284893 3.5 51.8125 C9.39920288 38.81337153 9.37270683 25.52806174 5 12 C3.78800577 9.48944052 2.48949269 7.15171424 0.98828125 4.8046875 C0 3 0 3 0 0 Z " fill="#E8C3B5" transform="translate(349,219)"/>
<path d="M0 0 C1.01835938 0.44730469 2.03671875 0.89460938 3.0859375 1.35546875 C4.51537118 1.96673973 5.94507407 2.57738143 7.375 3.1875 C8.365 3.62545898 8.365 3.62545898 9.375 4.07226562 C24.64084319 10.52555388 40.02187916 12.93506847 56.4375 14.1875 C58.37283888 14.34787184 60.3080601 14.50966954 62.24316406 14.67285156 C67.82706987 15.13827954 73.41312608 15.571941 79 16 C80.55161627 16.12098473 82.10321266 16.24222472 83.65478516 16.36376953 C91.10075018 16.94490799 98.54831188 17.49722565 106 18 C102.3314561 20.3702605 99.53469953 20.06270557 95.265625 19.67578125 C93.91353119 19.5631689 92.56131203 19.45205357 91.20898438 19.34228516 C90.51281006 19.28333069 89.81663574 19.22437622 89.09936523 19.16363525 C85.75201741 18.90272586 82.40066353 18.75817562 79.046875 18.60546875 C21.47651781 15.82818526 21.47651781 15.82818526 0 2 C0 1.34 0 0.68 0 0 Z " fill="#5CACEF" transform="translate(105,313)"/>
<path d="M0 0 C5.49855593 1.1898936 10.94268228 2.57404922 16.37890625 4.01953125 C17.89582752 4.41538687 19.41275421 4.81122172 20.9296875 5.20703125 C23.41951536 5.86200244 25.90145604 6.53542472 28.3828125 7.22265625 C31.03840926 7.92896882 33.67841443 8.51664637 36.37890625 9.01953125 C35.71890625 9.67953125 35.05890625 10.33953125 34.37890625 11.01953125 C26.34145256 10.70082181 18.55010469 8.08856771 10.81640625 6.01953125 C8.7316556 5.46321074 6.64653037 4.90853288 4.56007385 4.35864258 C2.66976141 3.86030809 0.78099742 3.35611065 -1.10766602 2.8515625 C-5.9738255 1.69918452 -10.79491018 0.88047188 -15.8046875 0.921875 C-16.50400391 0.92509766 -17.20332031 0.92832031 -17.92382812 0.93164062 C-18.98053711 0.94420898 -18.98053711 0.94420898 -20.05859375 0.95703125 C-21.1559082 0.96379883 -21.1559082 0.96379883 -22.27539062 0.97070312 C-24.05732794 0.98234977 -25.83922238 1.00027934 -27.62109375 1.01953125 C-20.52650489 -3.71019466 -8.05920358 -1.56043169 0 0 Z " fill="#EDC25E" transform="translate(280.62109375,317.98046875)"/>
<path d="M0 0 C1.12277344 0.26554687 2.24554688 0.53109375 3.40234375 0.8046875 C10.92542756 2.58114608 18.44745196 4.35217134 26 6 C25.34 6.66 24.68 7.32 24 8 C18.54512853 7.78608347 13.34476945 6.44634867 8.0625 5.125 C7.38743408 4.96370605 6.71236816 4.80241211 6.0168457 4.63623047 C4.09765625 4.1328125 4.09765625 4.1328125 1 3 C0.67 2.01 0.34 1.02 0 0 Z " fill="#EAC05C" transform="translate(291,321)"/>
<path d="M0 0 C1.15757813 0.48210937 2.31515625 0.96421875 3.5078125 1.4609375 C5.04683006 2.09906673 6.58589508 2.73708151 8.125 3.375 C9.26582031 3.85066406 9.26582031 3.85066406 10.4296875 4.3359375 C14.5777227 6.05236586 18.71581771 7.64493915 23 9 C23 9.66 23 10.32 23 11 C17.77358167 10.39093708 13.45353494 8.72396352 8.6875 6.625 C7.95982422 6.32078125 7.23214844 6.0165625 6.48242188 5.703125 C4.61480427 4.88854435 2.80160481 3.95171281 1 3 C0.67 2.01 0.34 1.02 0 0 Z " fill="#5BADF0" transform="translate(105,313)"/>
<path d="M0 0 C1.52282125 4.61756644 -0.29360203 7.72932633 -2.25 11.9375 C-2.56324219 12.64068359 -2.87648438 13.34386719 -3.19921875 14.06835938 C-8.22221826 25.18773796 -8.22221826 25.18773796 -13 27 C-11.41233046 23.67532566 -9.54243777 20.58159555 -7.625 17.4375 C-4.31717311 11.82317169 -1.96513347 6.20054536 0 0 Z " fill="#50DAA8" transform="translate(315,134)"/>
<path d="M0 0 C5.93002267 -0.37851209 10.47239641 0.89424625 16 3 C16 3.33 16 3.66 16 4 C13.89551062 3.85890014 11.7914123 3.71195825 9.6875 3.5625 C8.51574219 3.48128906 7.34398437 3.40007812 6.13671875 3.31640625 C3 3 3 3 0 2 C0 1.34 0 0.68 0 0 Z " fill="#5DAAEA" transform="translate(214,332)"/>
<path d="M0 0 C4.29 0.99 8.58 1.98 13 3 C12.34 3.66 11.68 4.32 11 5 C8.6171875 4.7578125 8.6171875 4.7578125 5.875 4.125 C4.96492188 3.92132813 4.05484375 3.71765625 3.1171875 3.5078125 C2.41851562 3.34023438 1.71984375 3.17265625 1 3 C0.67 2.01 0.34 1.02 0 0 Z " fill="#DFB658" transform="translate(291,321)"/>
<path d="M0 0 C6.40141012 -0.51211281 9.98010898 -0.11888494 15 4 C11.37673261 5.2077558 10.35853631 4.54311128 7 3 C7 2.34 7 1.68 7 1 C4.69 1 2.38 1 0 1 C0 0.67 0 0.34 0 0 Z " fill="#D5AF54" transform="translate(472,243)"/>
</svg>
